<svg width="141" height="97" viewBox="0 0 141 97" fill="none" xmlns="http://www.w3.org/2000/svg">
<g clip-path="url(#clip0_17_8126)">
<path d="M140.51 68.2066C140.108 64.9472 138.457 62.1199 135.588 59.7929C135.553 59.7495 135.513 59.7093 135.471 59.6726L135.326 59.5687L135.279 59.5359L133.756 58.4421L133.704 58.4039L133.51 58.2671C133.439 58.2256 133.363 58.1934 133.283 58.1714C128.465 55.3031 120.489 53.2933 108.286 57.6C105.373 52.7 105.043 48.7734 106.992 42.7578C107.34 41.7105 107.017 41.0187 105.978 40.5703C103.889 39.6816 101.029 40.1355 98.9996 40.6714C98.0536 40.9175 97.4848 41.4535 97.3043 42.2656C96.0192 48.2812 92.284 53.7773 88.6719 59.082L88.4586 59.3937C86.2329 54.6742 86.695 51.0183 88.2454 46.4382C88.5543 45.525 88.311 44.9179 87.4551 44.464C85.0653 43.2308 81.4805 44.0785 80.0532 44.4996C78.243 45.0273 76.3016 49.9191 74.1332 55.7761C73.5864 57.25 73.1161 58.5105 72.8344 59.0984C72.1645 60.4656 71.5247 62.0242 70.8465 63.6785C69.3153 67.4218 67.5899 71.6355 65.1235 74.2824C64.2266 72.2999 65.6375 69.1746 67.0075 66.1421C68.6289 62.5574 70.1602 59.1695 68.3965 57.0066C68.1176 56.6646 67.7716 56.3834 67.3799 56.1803C66.9882 55.9771 66.559 55.8563 66.1188 55.8254C65.5445 55.7816 64.968 55.8754 64.4371 56.0988C64.6203 54.5539 64.6285 53.3343 64.1774 51.8605C63.5321 49.7578 61.8559 48.5793 59.5481 48.6421C54.2926 48.7953 49.8465 52.7109 47.0383 55.9703C45.168 58.1578 41.0227 59.8257 37.3832 61.2886C35.945 61.8984 34.5778 62.4453 33.4375 62.9921C31.6192 61.4554 29.3086 59.905 26.875 58.2671C20.0391 53.6789 12.2926 48.4753 12.0246 41.4207C11.6418 31 23.509 23.6089 33.8668 18.3343C41.7172 14.3422 48.5422 11.6953 54.7328 10.2488C63.4282 8.21715 70.7727 8.62731 76.5586 11.4629C79.725 13.0132 81.2071 16.3847 80.2664 19.8519C77.8055 28.8617 67.609 35.0359 58.8891 37.814C53.6364 39.4875 49.1657 40.1875 45.2172 39.9578C40.268 39.6707 36.2266 37.1879 34.4985 36.1297C34.2217 35.9404 33.9289 35.7757 33.6235 35.6375L33.5442 35.6183C33.3877 35.5794 33.2235 35.5843 33.0696 35.6325C32.9158 35.6808 32.7782 35.7705 32.6719 35.8918C32.3164 36.3156 32.4422 36.9855 32.5707 37.3246C34.2524 41.7187 37.725 44.4941 42.8903 45.5742C44.5807 45.9129 46.3015 46.0769 48.0254 46.0636C60.1141 46.0636 75.5387 39.0937 81.2043 33.3543C85.068 29.4441 87.8817 25.4246 89.0465 18.4929C90.2633 11.2332 85.3414 6.18825 80.3266 3.86403C68.1395 -1.76058 54.2981 0.46247 44.8317 3.31716C33.7575 6.65583 22.3004 12.7261 13.4028 19.9777C2.43245 28.9109 -1.5324 37.2043 1.61214 44.6554C4.84143 52.2925 12.7164 57.0695 20.3317 61.6906C22.7926 63.1808 25.1332 64.6 27.2414 66.0656C26.6071 66.3746 25.959 66.689 25.3 67.0035C18.9071 70.1015 11.6555 73.5878 7.63323 79.3492C4.71292 83.5464 4.16604 87.7246 6.00901 91.7687C6.99339 93.9206 8.74339 95.3808 11.1742 96.1081C12.4388 96.4664 13.7483 96.6405 15.0625 96.6249C19.7957 96.6249 25.0047 94.7109 27.8403 92.9417C32.8496 89.7972 36.0953 85.5753 37.4899 80.3937C38.7313 75.7835 38.4332 71.2035 36.6285 67.1156L42.7672 64.0203C39.8059 73.864 42.0754 79.7429 44.5692 82.9859C45.4879 84.1808 47.145 84.8999 48.9961 84.9328C50.8473 84.9656 52.5508 84.2683 53.5133 83.0816C55.3344 80.8257 56.6797 78.1871 57.9184 75.5484C57.8528 77.271 57.9348 79.0156 58.5227 80.4949C59.0504 81.8265 59.92 82.7097 61.041 83.0488C62.2332 83.4125 63.6305 83.1062 64.9758 82.1875C71.0379 78.0394 75.1832 68.0835 78.5137 60.08C78.9868 58.9425 79.4407 57.8488 79.8809 56.8261C80.7049 59.7749 81.8511 62.624 83.2989 65.3218C83.6215 65.907 83.5942 66.164 83.1567 66.6453C82.4977 67.3671 81.5789 68.2394 80.6055 69.1636C77.6579 71.9609 73.9883 75.4527 73.4961 78.5234C73.3047 79.7539 74.1524 80.8749 75.4676 81.1292C79.4243 81.9167 84.1903 80.7656 88.2207 78.0531C91.8848 75.5921 93.2629 72.1605 92.3223 67.8839C91.4118 63.766 93.4899 58.6527 98.4993 52.6753C99.3196 56.1015 100.413 58.8714 101.923 61.2968L101.882 61.3296C98.234 64.5152 93.2356 68.8765 94.0122 74.1675C94.0773 74.6707 94.2466 75.1548 94.5093 75.5889C94.772 76.023 95.1224 76.3975 95.5379 76.6886C95.982 76.9885 96.4833 77.1933 97.0103 77.2902C97.5373 77.3872 98.0787 77.3741 98.6004 77.2519C103.377 76.2484 106.973 74.2277 109.587 71.0804C112.201 67.9332 111.247 64.4441 110.366 61.7371C117.202 59.8832 123.289 59.9296 128.988 61.8738C132.187 62.9675 134.481 64.764 135.804 67.2441C137.47 70.364 136.57 73.2433 133.264 75.3515C132.25 75.9996 131.76 76.396 131.73 76.8964C131.723 77.0126 131.745 77.1286 131.792 77.2347C131.84 77.3409 131.912 77.434 132.004 77.5062C132.386 77.8206 133.568 78.3675 136.239 76.6859C138.7 75.141 140.144 73.0382 140.513 70.3968C140.587 69.6686 140.586 68.9346 140.51 68.2066ZM31.209 75.0589L31.1817 75.4089C30.7551 79.4121 28.7207 82.9011 25.125 85.7996C22.8664 87.6207 20.4137 88.739 18.2207 88.9523C16.6895 89.0999 15.5766 88.8921 14.9149 88.3316C14.4199 87.9132 14.1547 87.2871 14.0946 86.4175C13.6461 79.4503 24.5727 72.5269 30.7223 70.2492C31.1611 71.8123 31.3258 73.4396 31.209 75.0589ZM59.1953 55.4097C58.1836 61.1765 55.2332 72.0621 50.5957 76.2867C50.3742 76.489 50.1883 76.5601 50.1035 76.541C50.0188 76.5218 49.9532 76.4206 49.8848 76.2675C48.3371 72.68 48.9086 66.6207 51.252 61.8601C53.0539 58.1906 55.627 55.7597 58.5035 55.0242C58.623 54.9913 58.7461 54.9738 58.87 54.9722C58.9668 54.9654 59.0631 54.9914 59.1434 55.0461C59.1772 55.0996 59.1994 55.1596 59.2083 55.2223C59.2173 55.285 59.2128 55.3489 59.1953 55.4097ZM82.0247 76.4316C81.1524 77.3421 79.9575 77.2191 80.2391 76.8855L84.6797 72.1714C84.3215 73.7929 83.2633 75.1355 82.0247 76.4316ZM100.446 72.3546C100.024 72.5626 99.5669 72.6914 99.0981 72.7347C98.9723 70.2546 101.376 67.4628 103.747 65.6007C104.384 68.1875 103.079 70.9218 100.446 72.3546Z" fill="#404040"/>
</g>
<defs>
<clipPath id="clip0_17_8126">
<rect width="140" height="97" fill="white" transform="translate(0.785156)"/>
</clipPath>
</defs>
</svg>
