<svg width="141" height="97" viewBox="0 0 141 97" fill="none" xmlns="http://www.w3.org/2000/svg">
<g clip-path="url(#clip0_17_8142)">
<path d="M0.630432 68.2066C1.03238 64.9472 2.68394 62.1199 5.55231 59.7929C5.58798 59.7495 5.62732 59.7093 5.66988 59.6726L5.8148 59.5687L5.86128 59.5359L7.38434 58.4421L7.43628 58.4039L7.63043 58.2671C7.70164 58.2256 7.77792 58.1934 7.85738 58.1714C12.6753 55.3031 20.6515 53.2933 32.855 57.6C35.7672 52.7 36.098 48.7734 34.1484 42.7578C33.8011 41.7105 34.1238 41.0187 35.1628 40.5703C37.2519 39.6816 40.1121 40.1355 42.141 40.6714C43.0871 40.9175 43.6558 41.4535 43.8363 42.2656C45.1214 48.2812 48.8566 53.7773 52.4687 59.082L52.682 59.3937C54.9078 54.6742 54.4457 51.0183 52.8953 46.4382C52.5863 45.525 52.8297 44.9179 53.6855 44.464C56.0754 43.2308 59.6601 44.0785 61.0875 44.4996C62.8976 45.0273 64.839 49.9191 67.0074 55.7761C67.5543 57.25 68.0246 58.5105 68.3062 59.0984C68.9761 60.4656 69.616 62.0242 70.2941 63.6785C71.8254 67.4218 73.5508 71.6355 76.0172 74.2824C76.914 72.2999 75.5031 69.1746 74.1332 66.1421C72.5117 62.5574 70.9804 59.1695 72.7441 57.0066C73.023 56.6646 73.369 56.3834 73.7607 56.1803C74.1525 55.9771 74.5816 55.8563 75.0218 55.8254C75.5962 55.7816 76.1726 55.8754 76.7035 56.0988C76.5203 54.5539 76.5121 53.3343 76.9633 51.8605C77.6086 49.7578 79.2847 48.5793 81.5925 48.6421C86.848 48.7953 91.2941 52.7109 94.1023 55.9703C95.9726 58.1578 100.118 59.8257 103.757 61.2886C105.196 61.8984 106.563 62.4453 107.703 62.9921C109.521 61.4554 111.832 59.905 114.266 58.2671C121.102 53.6789 128.848 48.4753 129.116 41.4207C129.499 31 117.632 23.6089 107.274 18.3343C99.4234 14.3422 92.5984 11.6953 86.4078 10.2488C77.7125 8.21715 70.3679 8.62731 64.582 11.4629C61.4156 13.0132 59.9336 16.3847 60.8742 19.8519C63.3351 28.8617 73.5316 35.0359 82.2515 37.814C87.5043 39.4875 91.975 40.1875 95.9234 39.9578C100.873 39.6707 104.914 37.1879 106.642 36.1297C106.919 35.9404 107.212 35.7757 107.517 35.6375L107.596 35.6183C107.753 35.5794 107.917 35.5843 108.071 35.6325C108.225 35.6808 108.362 35.7705 108.469 35.8918C108.824 36.3156 108.698 36.9855 108.57 37.3246C106.888 41.7187 103.416 44.4941 98.2504 45.5742C96.5599 45.9129 94.8392 46.0769 93.1152 46.0636C81.0265 46.0636 65.6019 39.0937 59.9363 33.3543C56.0726 29.4441 53.2589 25.4246 52.0941 18.4929C50.8773 11.2332 55.7992 6.18825 60.814 3.86403C73.0011 -1.76058 86.8425 0.46247 96.309 3.31716C107.383 6.65583 118.84 12.7261 127.738 19.9777C138.708 28.9109 142.673 37.2043 139.528 44.6554C136.299 52.2925 128.424 57.0695 120.809 61.6906C118.348 63.1808 116.007 64.6 113.899 66.0656C114.534 66.3746 115.182 66.689 115.841 67.0035C122.234 70.1015 129.485 73.5878 133.507 79.3492C136.428 83.5464 136.975 87.7246 135.132 91.7687C134.147 93.9206 132.397 95.3808 129.966 96.1081C128.702 96.4664 127.392 96.6405 126.078 96.6249C121.345 96.6249 116.136 94.7109 113.3 92.9417C108.291 89.7972 105.045 85.5753 103.651 80.3937C102.409 75.7835 102.707 71.2035 104.512 67.1156L98.3734 64.0203C101.335 73.864 99.0652 79.7429 96.5715 82.9859C95.6527 84.1808 93.9957 84.8999 92.1445 84.9328C90.2933 84.9656 88.5898 84.2683 87.6273 83.0816C85.8062 80.8257 84.4609 78.1871 83.2222 75.5484C83.2879 77.271 83.2058 79.0156 82.6179 80.4949C82.0902 81.8265 81.2207 82.7097 80.0996 83.0488C78.9074 83.4125 77.5101 83.1062 76.1648 82.1875C70.1027 78.0394 65.9574 68.0835 62.6269 60.08C62.1539 58.9425 61.7 57.8488 61.2597 56.8261C60.4358 59.7749 59.2895 62.624 57.8418 65.3218C57.5191 65.907 57.5464 66.164 57.9839 66.6453C58.6429 67.3671 59.5617 68.2394 60.5351 69.1636C63.4828 71.9609 67.1523 75.4527 67.6445 78.5234C67.8359 79.7539 66.9882 80.8749 65.673 81.1292C61.7164 81.9167 56.9504 80.7656 52.9199 78.0531C49.2558 75.5921 47.8777 72.1605 48.8183 67.8839C49.7289 63.766 47.6507 58.6527 42.6414 52.6753C41.8211 56.1015 40.7273 58.8714 39.2179 61.2968L39.2589 61.3296C42.9066 64.5152 47.905 68.8765 47.1285 74.1675C47.0633 74.6707 46.894 75.1548 46.6313 75.5889C46.3686 76.023 46.0183 76.3975 45.6027 76.6886C45.1586 76.9885 44.6573 77.1933 44.1303 77.2902C43.6033 77.3872 43.0619 77.3741 42.5402 77.2519C37.7632 76.2484 34.1675 74.2277 31.5535 71.0804C28.9394 67.9332 29.8937 64.4441 30.7742 61.7371C23.9382 59.8832 17.8515 59.9296 12.1531 61.8738C8.95386 62.9675 6.65971 64.764 5.33629 67.2441C3.67105 70.364 4.57066 73.2433 7.87653 75.3515C8.89098 75.9996 9.38042 76.396 9.41051 76.8964C9.41721 77.0126 9.39587 77.1286 9.34828 77.2347C9.30067 77.3409 9.22824 77.434 9.13707 77.5062C8.75426 77.8206 7.573 78.3675 4.90152 76.6859C2.44058 75.141 0.996826 73.0382 0.627686 70.3968C0.553421 69.6686 0.554337 68.9346 0.630432 68.2066ZM109.932 75.0589L109.959 75.4089C110.386 79.4121 112.42 82.9011 116.016 85.7996C118.274 87.6207 120.727 88.739 122.92 88.9523C124.451 89.0999 125.564 88.8921 126.226 88.3316C126.721 87.9132 126.986 87.2871 127.046 86.4175C127.495 79.4503 116.568 72.5269 110.418 70.2492C109.98 71.8123 109.815 73.4396 109.932 75.0589ZM81.9453 55.4097C82.957 61.1765 85.9074 72.0621 90.5449 76.2867C90.7664 76.489 90.9523 76.5601 91.0371 76.541C91.1218 76.5218 91.1875 76.4206 91.2558 76.2675C92.8035 72.68 92.232 66.6207 89.8886 61.8601C88.0867 58.1906 85.5136 55.7597 82.6371 55.0242C82.5177 54.9913 82.3945 54.9738 82.2707 54.9722C82.1738 54.9654 82.0775 54.9914 81.9972 55.0461C81.9634 55.0996 81.9413 55.1596 81.9323 55.2223C81.9234 55.285 81.9278 55.3489 81.9453 55.4097ZM59.116 76.4316C59.9882 77.3421 61.1832 77.2191 60.9015 76.8855L56.4609 72.1714C56.8191 73.7929 57.8773 75.1355 59.116 76.4316ZM40.6945 72.3546C41.1169 72.5626 41.5738 72.6914 42.0425 72.7347C42.1683 70.2546 39.7648 67.4628 37.3941 65.6007C36.757 68.1875 38.0613 70.9218 40.6945 72.3546Z" fill="#404040"/>
</g>
<defs>
<clipPath id="clip0_17_8142">
<rect width="140" height="97" fill="white" transform="matrix(-1 0 0 1 140.785 0)"/>
</clipPath>
</defs>
</svg>
