<svg width="190" height="45" viewBox="0 0 190 45" fill="none" xmlns="http://www.w3.org/2000/svg">
<path d="M48.7338 41.9197V26.2721C48.7338 19.8539 52.4272 14.7982 59.8848 14.7982C61.0897 14.7982 62.2945 14.8769 63.4207 15.1998V21.6179C62.5387 21.5392 61.8142 21.5392 61.4913 21.5392C57.5538 21.5392 55.8764 23.3819 55.8764 26.9966V41.8409H48.7338V41.9197ZM65.5863 28.6818C65.5863 20.8147 71.524 14.7982 79.7849 14.7982C88.0536 14.7982 93.9914 20.8147 93.9914 28.6818C93.9914 36.5489 88.0458 42.5576 79.7849 42.5576C71.5161 42.5576 65.5863 36.5411 65.5863 28.6818ZM86.9275 28.6818C86.9275 24.1931 83.9586 21.0588 79.7849 21.0588C75.6899 21.0588 72.6423 24.1852 72.6423 28.6818C72.6423 33.1706 75.6111 36.3048 79.7849 36.3048C83.9586 36.3048 86.9275 33.1706 86.9275 28.6818ZM114.766 21.0588H107.064V30.9262C107.064 34.3754 108.269 35.9819 111.876 35.9819C112.198 35.9819 113.08 35.9819 114.128 35.9032V41.7543C112.772 42.156 111.368 42.3732 109.954 42.4001C103.938 42.4001 99.9213 38.7933 99.9213 31.9736V21.0588H95.1175V15.3652H96.3145C96.7891 15.3662 97.2593 15.2734 97.6978 15.092C98.1364 14.9106 98.5348 14.6443 98.87 14.3083C99.2052 13.9724 99.4707 13.5734 99.6511 13.1345C99.8315 12.6955 99.9234 12.2252 99.9213 11.7506V6.37194H107.064V15.3652H114.766V21.0588ZM116.931 28.6818C116.931 20.8147 122.869 14.7982 131.138 14.7982C139.407 14.7982 145.336 20.8147 145.336 28.6818C145.336 36.5489 139.32 42.5576 131.138 42.5576C122.869 42.5576 116.931 36.5411 116.931 28.6818ZM138.194 28.6818C138.194 24.1931 135.225 21.0588 131.059 21.0588C126.964 21.0588 123.916 24.1852 123.916 28.6818C123.916 33.1706 126.885 36.3048 131.059 36.3048C135.233 36.3048 138.194 33.1706 138.194 28.6818ZM149.03 41.9118V26.8312C149.03 19.8539 153.519 14.7982 161.464 14.7982C169.41 14.7982 173.82 19.8539 173.82 26.8312V41.9197H166.678V27.3982C166.678 23.4607 164.914 21.0588 161.386 21.0588C157.858 21.0588 156.172 23.4686 156.172 27.3982V41.9197L149.03 41.9118ZM16.3203 31.6586V41.9276H23.5416V32.1389C23.5416 30.1308 25.1481 28.5243 27.1484 28.5243H34.5351C37.9928 28.5243 41.3088 27.1508 43.7537 24.7058C46.1987 22.2609 47.5722 18.9449 47.5722 15.4873C47.5722 12.0296 46.1987 8.71358 43.7537 6.26866C41.3088 3.82374 37.9928 2.4502 34.5351 2.4502H16.3203V15.2864H23.5416V9.26994H34.0548C35.6943 9.26994 37.2667 9.92124 38.426 11.0806C39.5853 12.2399 40.2366 13.8123 40.2366 15.4518C40.2366 17.0913 39.5853 18.6637 38.426 19.8231C37.2667 20.9824 35.6943 21.6337 34.0548 21.6337H26.4318C22.3368 21.6337 18.6434 24.1143 17.1235 27.8864C16.5757 29.0675 16.3012 30.3568 16.3203 31.6586Z" fill="#404040"/>
</svg>
