<svg width="177" height="45" viewBox="0 0 177 45" fill="none" xmlns="http://www.w3.org/2000/svg">
<path d="M60.4324 31.3587V4.42334H70.479C72.3075 4.42334 73.9208 4.76312 75.319 5.44267C76.749 6.08801 77.8417 7.05601 78.6557 8.33201C79.4526 9.58845 79.8535 11.1162 79.8584 12.9153C79.8584 14.7047 79.4428 16.2349 78.6117 17.506C77.8179 18.7638 76.6768 19.7648 75.3264 20.388C73.9184 21.0627 72.3001 21.4049 70.4717 21.4147H65.353V31.344H60.4324V31.3587ZM65.3457 17.0953H70.567C71.3653 17.111 72.1563 16.9403 72.877 16.5967C73.5106 16.2532 74.0362 15.7403 74.395 15.1153C74.7562 14.4521 74.9405 13.7071 74.9304 12.952C74.9405 12.1969 74.7562 11.4519 74.395 10.7887C74.0404 10.1697 73.5128 9.66764 72.877 9.34401C72.1633 8.97679 71.3695 8.79282 70.567 8.80868H65.353V17.1173L65.3457 17.0953ZM83.0557 31.3587V4.42334H87.9764V31.3367H83.0557V31.3587ZM118.674 4.42334V31.3367H113.709V13.0473L105.408 24.128H104.828L96.4904 12.71V31.3587H91.5697V4.42334H96.263L105.217 16.582L113.973 4.42334H118.688H118.674ZM121.702 31.3587V26.8487H123.257C124.263 26.8951 125.246 26.5418 125.992 25.866C126.345 25.5211 126.621 25.1059 126.803 24.6473C126.985 24.1887 127.069 23.6969 127.048 23.204V4.43068H131.991V22.9987C132.001 24.656 131.634 26.1178 130.891 27.384C130.2 28.6427 129.144 29.6627 127.862 30.31C126.435 31.0427 124.846 31.4034 123.242 31.3587H121.68H121.702ZM148.454 4.42334C144.886 4.42334 141.465 5.8407 138.942 8.36363C136.419 10.8866 135.001 14.3084 135.001 17.8763C135.001 21.4443 136.419 24.8661 138.942 27.389C141.465 29.912 144.886 31.3293 148.454 31.3293C152.022 31.3293 155.444 29.912 157.967 27.389C160.49 24.8661 161.907 21.4443 161.907 17.8763C161.907 14.3084 160.49 10.8866 157.967 8.36363C155.444 5.8407 152.022 4.42334 148.454 4.42334ZM148.454 26.8487C146.142 26.7551 143.956 25.7708 142.353 24.1018C140.751 22.4329 139.855 20.2086 139.855 17.8947C139.855 15.5807 140.751 13.3565 142.353 11.6875C143.956 10.0186 146.142 9.03427 148.454 8.94067C150.766 9.03427 152.953 10.0186 154.555 11.6875C156.158 13.3565 157.053 15.5807 157.053 17.8947C157.053 20.2086 156.158 22.4329 154.555 24.1018C152.953 25.7708 150.766 26.7551 148.454 26.8487Z" fill="#404040"/>
<path d="M143.204 18.0047C143.204 19.3982 143.757 20.7347 144.743 21.7201C145.728 22.7054 147.065 23.259 148.458 23.259C149.852 23.259 151.188 22.7054 152.173 21.7201C153.159 20.7347 153.712 19.3982 153.712 18.0047H143.182H143.204ZM31.9057 0.302017C29.716 0.299121 27.5471 0.728298 25.5235 1.56495C23.4998 2.4016 21.6612 3.6293 20.1128 5.1777C18.5644 6.72611 17.3367 8.5648 16.5 10.5884C15.6634 12.6121 15.2342 14.7809 15.2371 16.9707V44.698L25.5624 32.4C28.0954 33.4444 30.8469 33.8479 33.5731 33.5749C36.2993 33.302 38.9161 32.3609 41.1917 30.8351C43.4674 29.3093 45.3317 27.2458 46.6194 24.8275C47.9072 22.4091 48.5786 19.7105 48.5744 16.9707C48.5773 14.7809 48.1481 12.6121 47.3115 10.5884C46.4748 8.5648 45.2471 6.72611 43.6987 5.1777C42.1503 3.6293 40.3116 2.4016 38.288 1.56495C36.2643 0.728298 34.0955 0.299121 31.9057 0.302017ZM31.9057 24.832C30.8724 24.8315 29.8493 24.6275 28.8948 24.2317C27.9403 23.8358 27.0732 23.2558 26.3428 22.5248C24.8679 21.0484 24.0398 19.0466 24.0407 16.9597C24.0417 14.8728 24.8717 12.8717 26.348 11.3968C27.8244 9.9218 29.8262 9.09372 31.9131 9.09469C34 9.09566 36.001 9.92561 37.476 11.402C38.951 12.8783 39.779 14.8801 39.7781 16.967C39.7771 19.0539 38.9471 21.055 37.4708 22.5299C35.9944 24.0049 33.9926 24.833 31.9057 24.832Z" fill="#404040"/>
</svg>
