<svg width="190" height="41" viewBox="0 0 190 41" fill="none" xmlns="http://www.w3.org/2000/svg">
<path fill-rule="evenodd" clip-rule="evenodd" d="M6.55176 10.505H15.6961V32.8121H29.9686V40.0997H6.55176V10.505ZM52.3363 35.2145H41.9191L40.4876 40.0997H31.141L42.2639 10.505H52.2351L63.3588 40.0997H53.7899L52.3363 35.2145ZM50.4189 28.8151L47.1484 18.1765L43.8977 28.8151H50.4189ZM66.4072 10.5057H79.993C82.6715 10.5057 84.8349 10.869 86.4833 11.5954C88.1316 12.3219 89.4942 13.3648 90.5711 14.7243C91.648 16.0832 92.4286 17.6646 92.9129 19.4685C93.3973 21.2713 93.6394 23.1823 93.6394 25.2012C93.6394 28.364 93.2796 30.8168 92.5601 32.5597C91.839 34.302 90.8399 35.7623 89.5626 36.9406C88.2834 38.1184 86.9102 38.9022 85.443 39.292C83.4383 39.8305 81.6217 40.0997 79.993 40.0997H66.4072V10.5057ZM75.5515 17.2071V33.3777H77.7929C79.7041 33.3777 81.0633 33.1655 81.8705 32.7413C82.6777 32.3175 83.3101 31.5772 83.7679 30.5205C84.2256 29.4648 84.4545 27.7522 84.4545 25.3828C84.4545 22.2471 83.9431 20.1007 82.9203 18.9435C81.8975 17.7859 80.202 17.2071 77.8335 17.2071H75.5523H75.5515ZM96.8495 30.3086L105.55 29.7638C105.739 31.1764 106.122 32.253 106.701 32.9938C107.643 34.1918 108.989 34.7907 110.739 34.7907C112.044 34.7907 113.05 34.4844 113.757 33.8716C114.463 33.2598 114.816 32.5501 114.816 31.7424C114.816 30.9746 114.48 30.288 113.807 29.6826C113.134 29.0772 111.573 28.5053 109.123 27.9668C105.113 27.0656 102.253 25.8679 100.545 24.3736C98.8219 22.8798 97.9606 20.9755 97.9606 18.6608C97.9606 17.1399 98.4011 15.7032 99.2821 14.3507C100.163 12.9982 101.489 11.935 103.259 11.1613C105.029 10.3871 107.455 10 110.536 10C114.318 10 117.202 10.7033 119.187 12.11C121.172 13.5167 122.353 15.7542 122.73 18.8225L114.11 19.3267C113.881 17.9948 113.4 17.026 112.666 16.4201C111.933 15.8142 110.92 15.5115 109.628 15.512C108.565 15.512 107.764 15.7372 107.226 16.1875C106.688 16.6384 106.418 17.1869 106.418 17.8332C106.418 18.3042 106.64 18.728 107.084 19.1045C107.515 19.4953 108.538 19.8588 110.153 20.1949C114.15 21.0563 117.013 21.9277 118.742 22.8092C120.472 23.6907 121.73 24.7841 122.518 26.0894C123.306 27.3956 123.699 28.8559 123.699 30.4703C123.699 32.3677 123.174 34.1174 122.125 35.7195C121.074 37.3211 119.607 38.5356 117.724 39.3629C115.839 40.1908 113.463 40.6047 110.597 40.6047C105.564 40.6047 102.078 39.6356 100.14 37.6974C97.2326 34.79 97.1057 33.2972 96.8495 30.3086ZM128.261 10.505H143.462C146.773 10.505 149.252 11.2925 150.901 12.8675C152.55 14.4415 153.374 16.6822 153.374 19.5895C153.374 22.5771 152.476 24.912 150.68 26.5943C148.883 28.2766 146.141 29.1178 142.453 29.1178H137.446V40.0997H128.261V10.505ZM137.446 23.1222H139.688C141.451 23.1222 142.688 22.8161 143.401 22.2038C144.115 21.591 144.472 20.807 144.472 19.8516C144.472 18.9229 144.162 18.1356 143.543 17.4899C142.924 16.8436 141.76 16.5205 140.051 16.5205H137.446V23.1222ZM172.855 35.2145H162.438L161.005 40.0997H151.659L162.782 10.505H172.754L183.877 40.0997H174.309L172.855 35.2145ZM170.937 28.8151L167.667 18.1765L164.417 28.8151H170.937Z" fill="#404040"/>
</svg>
